<?xml version="1.0" standalone="no"?>
<!DOCTYPE svg PUBLIC "-//W3C//DTD SVG 20010904//EN"
 "http://www.w3.org/TR/2001/REC-SVG-20010904/DTD/svg10.dtd">
<svg version="1.0" xmlns="http://www.w3.org/2000/svg"
 width="240.000000pt" height="240.000000pt" viewBox="0 0 240.000000 240.000000"
 preserveAspectRatio="xMidYMid meet">
<metadata>
Created by potrace 1.14, written by Peter Selinger 2001-2017
</metadata>
<g transform="translate(0.000000,240.000000) scale(0.100000,-0.100000)"
fill="#000000" stroke="none">
<path d="M1198 2385 c-1 -1 -43 -6 -93 -9 -108 -7 -125 -10 -236 -41 -95 -27
-189 -74 -239 -119 -19 -16 -47 -30 -66 -32 -87 -8 -154 -84 -154 -175 0 -20
-4 -27 -18 -25 -17 3 -47 -10 -67 -29 -28 -28 -37 -49 -42 -102 -3 -32 -6 -59
-7 -60 -1 -1 -23 -3 -50 -4 -59 -3 -76 -24 -76 -91 0 -32 -4 -48 -13 -48 -7 0
-26 -12 -43 -27 -101 -94 -99 -300 5 -390 15 -12 32 -22 39 -23 8 0 12 -16 12
-48 0 -70 19 -92 81 -92 47 0 49 -1 50 -27 1 -36 1 -477 0 -565 l-1 -68 -51 0
c-61 0 -110 -26 -131 -70 -10 -20 -14 -60 -13 -126 2 -84 5 -99 21 -113 18
-15 126 -16 1098 -16 l1078 0 17 22 c15 17 18 39 16 115 -1 58 -7 104 -16 122
-19 39 -69 66 -131 69 l-50 2 0 300 c1 165 1 312 1 328 1 25 4 27 44 27 43 0
81 18 83 39 1 6 2 31 3 56 1 32 5 45 15 45 27 0 92 78 100 120 1 3 4 10 8 15
12 21 6 149 -10 193 -18 47 -74 112 -98 112 -10 0 -14 14 -14 50 0 66 -23 90
-85 90 -48 0 -50 4 -45 67 4 51 -51 119 -102 126 -16 3 -24 12 -26 28 -13 102
-65 160 -154 172 -20 2 -44 12 -53 21 -60 59 -206 128 -320 150 -16 4 -41 9
-55 11 -14 3 -61 8 -105 11 -44 2 -85 6 -92 9 -6 2 -13 2 -15 0z"/>
</g>
</svg>
